<?xml version="1.0" standalone="no"?>
<!DOCTYPE svg PUBLIC "-//W3C//DTD SVG 20010904//EN"
 "http://www.w3.org/TR/2001/REC-SVG-20010904/DTD/svg10.dtd">
<svg version="1.0" xmlns="http://www.w3.org/2000/svg"
 width="400.000000pt" height="400.000000pt" viewBox="0 0 400.000000 400.000000"
 preserveAspectRatio="xMidYMid meet">
<metadata>
Created by potrace 1.15, written by Peter Selinger 2001-2017
</metadata>
<g transform="translate(0.000000,400.000000) scale(0.100000,-0.100000)"
fill="#000000" stroke="none">
<path d="M0 2000 l0 -2000 2000 0 2000 0 0 2000 0 2000 -2000 0 -2000 0 0
-2000z m2157 1601 c103 -20 247 -68 324 -106 90 -46 229 -147 307 -223 184
-180 314 -416 367 -667 8 -39 15 -76 15 -83 0 -10 -51 -12 -237 -10 l-237 3
-31 100 c-135 427 -449 690 -851 712 -467 26 -905 -294 -1021 -746 -76 -298
-16 -610 171 -890 129 -193 340 -369 520 -433 50 -18 50 -18 11 -12 -53 8
-161 65 -258 137 -189 140 -333 331 -410 547 -59 163 -72 237 -71 405 1 129 5
164 27 250 104 389 413 670 814 740 250 44 516 -15 708 -157 170 -126 278
-282 360 -523 l40 -120 228 -3 227 -2 -6 42 c-24 157 -127 393 -235 538 -194
262 -470 438 -778 495 -175 32 -459 12 -646 -46 -174 -54 -356 -162 -494 -294
-109 -105 -185 -207 -253 -341 -100 -195 -138 -358 -138 -585 0 -271 63 -480
217 -712 60 -92 235 -267 334 -334 l76 -52 149 -4 149 -3 -153 -2 -154 -2 -76
52 c-100 68 -274 243 -337 338 -100 151 -166 316 -200 499 -19 108 -20 332 0
445 83 477 412 857 866 1001 206 65 483 84 676 46z m78 -1261 c-1247 -5 -1166
-1 -1222 -62 -86 -93 -39 -299 125 -546 112 -169 245 -285 437 -380 181 -90
310 -122 491 -122 294 0 546 91 744 268 l55 49 -537 8 c-295 4 -541 4 -547 0
-23 -14 -117 15 -148 45 -52 51 -51 130 2 150 16 6 283 10 700 10 l675 0 55
79 c57 81 85 112 85 93 0 -6 -4 -13 -9 -17 -5 -3 -35 -41 -65 -85 l-56 -80
-686 0 -685 0 -24 -25 c-14 -13 -25 -29 -25 -36 0 -26 32 -75 63 -96 31 -22
40 -22 457 -27 234 -3 498 -5 586 -5 120 -1 163 -4 167 -14 6 -16 -128 -126
-223 -182 -87 -52 -249 -108 -374 -130 -115 -20 -305 -19 -402 1 -166 34 -351
115 -488 212 -182 131 -345 366 -405 582 -47 169 -10 274 106 306 38 10 281
12 1168 11 l1120 -2 -1140 -5z m1107 -66 c-16 -27 -41 -70 -56 -96 l-27 -48
-897 0 c-493 0 -902 -4 -908 -8 -28 -18 -35 -51 -19 -87 36 -75 -26 -69 895
-75 l825 -5 -818 -3 c-889 -2 -864 -4 -900 51 -29 46 -26 108 6 129 7 4 416 8
910 8 l897 0 28 51 c44 82 83 142 88 136 3 -2 -8 -26 -24 -53z m-2063 -1271
c52 -38 61 -74 61 -240 l0 -153 -39 0 c-26 0 -41 5 -45 16 -3 9 -6 72 -6 142
0 115 -2 128 -22 149 -27 29 -77 30 -109 4 -23 -18 -24 -26 -27 -165 l-4 -146
-38 0 c-25 0 -40 5 -44 16 -9 24 -7 244 4 288 19 85 72 118 179 112 42 -3 72
-10 90 -23z m363 17 c69 -19 78 -43 78 -201 l0 -139 -29 -32 -29 -33 -101 0
c-96 0 -101 1 -130 29 -63 60 -47 171 30 209 21 10 59 18 85 18 65 1 84 7 84
28 0 28 -21 41 -67 41 -35 0 -46 -5 -64 -29 -23 -31 -57 -45 -84 -34 -22 8
-15 76 12 105 39 45 132 61 215 38z m393 -4 c53 -22 67 -54 73 -160 6 -112 -9
-184 -45 -217 -21 -21 -36 -24 -111 -27 -95 -3 -122 6 -155 50 -16 21 -21 44
-21 95 l-1 68 41 3 c45 3 54 -8 54 -75 0 -37 29 -63 70 -63 14 0 36 7 48 16
20 14 22 23 22 113 0 62 -4 101 -12 109 -7 7 -32 12 -55 12 -38 0 -46 -4 -61
-30 -17 -31 -46 -45 -79 -38 -14 3 -18 13 -17 46 1 47 38 97 78 105 49 10 139
6 171 -7z m535 -4 c19 -9 40 -28 47 -42 17 -34 16 -125 -2 -160 -23 -44 -122
-69 -198 -49 -63 16 -88 45 -96 115 -7 65 -20 75 -51 42 -18 -19 -21 -32 -18
-76 5 -56 25 -91 72 -126 22 -17 46 -21 132 -24 l105 -4 -3 -37 -3 -36 -104
-3 c-123 -3 -182 12 -229 61 -41 42 -62 105 -62 184 0 74 17 122 52 145 36 23
51 26 193 27 105 1 137 -2 165 -17z m395 -6 c54 -35 60 -57 63 -233 l4 -163
-45 0 -46 0 -3 146 c-3 139 -4 147 -27 165 -31 26 -83 25 -107 -2 -16 -18 -20
-42 -24 -163 l-5 -141 -42 -3 -43 -3 0 143 c0 79 5 159 10 179 12 41 45 76 86
89 42 14 150 5 179 -14z"/>
<path d="M1094 1006 c-17 -8 -42 -29 -55 -47 -23 -32 -24 -42 -24 -184 l0
-150 31 -3 32 -3 4 146 c3 140 4 148 27 166 33 27 102 26 127 -2 16 -18 20
-42 24 -163 l5 -141 33 -3 32 -3 0 149 c0 138 -2 151 -23 183 -42 63 -138 87
-213 55z"/>
<path d="M1473 1001 c-41 -25 -65 -63 -61 -93 5 -36 35 -34 72 6 29 32 38 36
82 36 57 0 74 -12 74 -51 0 -30 -17 -37 -99 -38 -57 -1 -90 -18 -119 -61 -34
-50 -26 -104 22 -147 34 -32 39 -33 117 -33 79 0 82 1 115 34 l34 34 0 134 0
134 -30 29 c-25 24 -39 28 -102 32 -61 4 -78 1 -105 -16z m151 -207 c21 -8 22
-77 1 -94 -22 -18 -87 -22 -115 -8 -19 11 -25 21 -25 48 0 27 6 37 25 47 26
13 88 17 114 7z"/>
<path d="M1513 775 c-29 -20 -29 -49 -1 -69 51 -36 121 -7 116 47 -3 30 -6 32
-48 35 -29 2 -53 -3 -67 -13z"/>
<path d="M1864 1010 c-35 -14 -75 -70 -72 -99 2 -21 8 -26 32 -26 22 0 33 7
46 30 15 27 22 30 69 33 77 5 81 -2 81 -128 0 -125 -6 -135 -80 -135 -61 0
-80 16 -80 69 0 54 -11 68 -46 64 -29 -3 -29 -4 -28 -67 1 -61 3 -66 37 -98
35 -32 40 -33 116 -33 71 0 83 3 110 26 38 32 51 77 50 179 -1 146 -39 196
-153 194 -34 0 -70 -4 -82 -9z"/>
<path d="M2241 1003 c-52 -26 -71 -66 -71 -148 0 -80 21 -134 66 -177 49 -46
93 -58 209 -58 l105 0 0 30 0 30 -76 0 c-97 0 -156 15 -187 48 -63 68 -62 203
1 219 31 7 42 -9 42 -64 0 -100 110 -148 232 -101 40 15 58 50 58 110 0 60
-16 90 -60 113 -43 22 -272 21 -319 -2z m293 -69 c34 -33 13 -90 -37 -99 -51
-10 -85 8 -93 49 -10 57 -2 66 60 66 36 0 60 -5 70 -16z"/>
<path d="M2417 933 c-27 -27 14 -93 58 -93 27 0 65 32 65 54 0 27 -30 46 -74
46 -23 0 -46 -3 -49 -7z"/>
<path d="M2794 1014 c-12 -3 -36 -21 -55 -40 l-34 -35 -3 -160 -4 -160 34 3
33 3 5 141 c4 121 8 145 24 163 25 28 94 29 127 2 23 -18 24 -26 27 -165 l4
-146 34 0 34 0 0 143 c0 156 -10 192 -62 231 -27 20 -116 30 -164 20z"/>
</g>
</svg>
