<?xml version="1.0" standalone="no"?>
<!DOCTYPE svg PUBLIC "-//W3C//DTD SVG 20010904//EN"
 "http://www.w3.org/TR/2001/REC-SVG-20010904/DTD/svg10.dtd">
<svg version="1.0" xmlns="http://www.w3.org/2000/svg"
 width="400.000000pt" height="400.000000pt" viewBox="0 0 400.000000 400.000000"
 preserveAspectRatio="xMidYMid meet">
<metadata>
Created by potrace 1.15, written by Peter Selinger 2001-2017
</metadata>
<g transform="translate(0.000000,400.000000) scale(0.100000,-0.100000)"
fill="#000000" stroke="none">
<path d="M1690 3595 c-166 -28 -328 -85 -455 -158 -261 -151 -461 -395 -560
-681 -64 -189 -85 -467 -49 -657 65 -344 261 -640 552 -832 l57 -37 140 0 140
1 -81 38 c-288 136 -519 400 -623 709 -196 583 117 1171 708 1330 83 22 116
25 246 25 176 0 256 -17 400 -86 248 -120 410 -324 513 -647 l27 -85 228 -3
c193 -2 227 0 227 12 0 28 -30 156 -51 218 -144 431 -508 761 -936 847 -119
25 -359 27 -483 6z"/>
<path d="M1078 2324 c-85 -26 -116 -88 -105 -208 15 -159 149 -408 302 -561
132 -132 345 -248 549 -299 276 -70 622 -11 867 146 54 35 166 127 171 140 2
4 -256 10 -572 13 -319 4 -589 11 -606 16 -37 11 -68 43 -84 83 -14 38 2 79
37 95 18 8 209 11 701 11 l676 -1 63 88 c34 48 62 91 63 96 0 4 -366 7 -812 7
-788 0 -814 1 -845 20 -63 38 -85 109 -48 150 18 20 29 20 919 20 l901 0 50
91 c28 50 52 95 53 100 2 5 -462 9 -1115 8 -942 0 -1125 -3 -1165 -15z"/>
<path d="M1082 1003 c-58 -29 -67 -58 -67 -232 l0 -155 28 1 c15 1 30 1 35 2
4 1 7 64 7 140 0 134 1 140 24 165 30 32 87 35 122 7 23 -18 24 -27 29 -167
l5 -148 30 0 30 0 3 154 c2 141 0 158 -18 188 -11 18 -36 40 -55 48 -46 19
-132 18 -173 -3z"/>
<path d="M1463 1000 c-36 -22 -49 -42 -54 -85 -4 -28 -2 -30 34 -33 28 -2 37
0 37 12 0 31 38 56 84 56 51 0 76 -19 76 -56 0 -23 -3 -24 -57 -25 -32 0 -76
-6 -98 -13 -72 -21 -106 -107 -70 -176 26 -50 51 -60 146 -60 83 0 89 1 117
29 35 36 42 66 41 180 0 111 -14 151 -59 173 -50 25 -155 24 -197 -2z m175
-240 c5 -54 -15 -73 -78 -73 -60 0 -83 19 -78 63 4 33 42 51 103 48 49 -3 50
-3 53 -38z"/>
<path d="M1855 1011 c-34 -14 -56 -47 -62 -91 l-6 -41 39 3 c30 2 40 8 42 23
5 30 31 45 77 45 65 0 75 -18 75 -137 0 -113 -4 -122 -66 -127 -39 -3 -73 8
-86 28 -4 6 -8 32 -8 59 l0 47 -40 0 -40 0 0 -50 c0 -61 19 -111 51 -134 33
-23 185 -23 218 0 38 27 51 74 51 185 0 160 -31 200 -157 198 -37 0 -77 -4
-88 -8z"/>
<path d="M2244 1010 c-11 -4 -33 -22 -47 -40 -25 -29 -27 -39 -27 -113 0 -97
21 -151 71 -190 52 -39 78 -46 196 -48 l108 -2 0 34 0 34 -97 2 c-145 3 -189
36 -204 151 -5 45 -3 58 13 80 12 16 30 27 44 27 22 0 24 -5 29 -61 3 -42 11
-69 24 -83 47 -51 187 -52 238 -1 28 28 33 51 28 120 -6 84 -41 100 -222 99
-73 0 -142 -4 -154 -9z m288 -77 c26 -23 22 -58 -8 -82 -35 -28 -69 -26 -99 4
-24 23 -34 73 -18 88 14 14 106 7 125 -10z"/>
<path d="M2770 1002 c-59 -29 -70 -65 -70 -234 l0 -148 25 0 c14 0 28 -1 33
-2 4 -2 9 64 12 145 5 141 6 150 29 168 40 33 119 22 137 -18 4 -10 10 -81 13
-158 l6 -139 30 0 30 0 3 149 c3 171 -7 204 -69 237 -44 23 -132 24 -179 0z"/>
</g>
</svg>
